# xmcd
#
# Track frame offsets:
#	150
#	9493
#	20662
#	35134
#	46176
#
# Disc length: 900 seconds
#
# Revision: 0
# Processed by: cddbd v1.5.2PL0 Copyright (c) Steve Scherf et al.
# Submitted via: audiograbber 1.83.01
#
DISCID=37038205
DTITLE=Apple 100001 - Apple 100001
DYEAR=1900
DGENRE=
TTITLE0=Sandpipers - Ali Baba
TTITLE1=Jimmy Rushing - Hey Miss Bessie
TTITLE2=Dorsets - Pork Chops
TTITLE3=Hollywood Flames - Ride Helen Ride
TTITLE4=Johnny Otis - Shake It Lucy Baby
EXTD=
EXTT0=
EXTT1=
EXTT2=
EXTT3=
EXTT4=
PLAYORDER=
